<?xml version="1.0" standalone="no"?>
<!DOCTYPE svg PUBLIC "-//W3C//DTD SVG 20010904//EN"
 "http://www.w3.org/TR/2001/REC-SVG-20010904/DTD/svg10.dtd">
<svg version="1.0" xmlns="http://www.w3.org/2000/svg"
 width="50.000000pt" height="50.000000pt" viewBox="0 0 50.000000 50.000000"
 preserveAspectRatio="xMidYMid meet">

<g transform="translate(0.000000,50.000000) scale(0.100000,-0.100000)"
fill="#000000" stroke="none">
<path d="M0 410 c0 -6 52 -10 135 -10 83 0 135 4 135 10 0 6 -52 10 -135 10
-83 0 -135 -4 -135 -10z"/>
<path d="M390 268 l0 -152 -40 39 c-22 21 -43 35 -47 31 -4 -3 16 -30 45 -59
l52 -52 52 52 c29 29 49 56 45 59 -4 4 -25 -10 -47 -31 l-40 -39 0 152 c0 95
-4 152 -10 152 -6 0 -10 -57 -10 -152z"/>
<path d="M0 330 c0 -6 40 -10 100 -10 60 0 100 4 100 10 0 6 -40 10 -100 10
-60 0 -100 -4 -100 -10z"/>
<path d="M0 250 c0 -6 33 -10 80 -10 47 0 80 4 80 10 0 6 -33 10 -80 10 -47 0
-80 -4 -80 -10z"/>
<path d="M0 170 c0 -6 27 -10 60 -10 33 0 60 4 60 10 0 6 -27 10 -60 10 -33 0
-60 -4 -60 -10z"/>
<path d="M0 90 c0 -5 18 -10 40 -10 22 0 40 5 40 10 0 6 -18 10 -40 10 -22 0
-40 -4 -40 -10z"/>
</g>
</svg>
